<svg version="1.1" id="" class="logo-concord" xmlns="http://www.w3.org/2000/svg" xmlns:xlink="http://www.w3.org/1999/xlink" x="0px" y="0px" width="100%" height="100%" viewBox="0 0 33.616 31.389" enable-background="new 0 0 33.616 31.389" xml:space="preserve">
<path class="p1" fill-rule="evenodd" clip-rule="evenodd" d="M9.319,0.024L16.208,0c0,0-0.077,4.966-3.227,6.169
	c-5.248,1.971-5.121,5.94-5.121,5.94H1.075c0,0-0.461-6.17,6.196-9.371C9.344,1.766,9.319,0.024,9.319,0.024"/>
<path class="p2" fill-rule="evenodd" clip-rule="evenodd" d="M9.319,24.451l6.888,0.025c0,0-0.077-4.967-3.227-6.145
	c-5.248-1.998-5.121-5.966-5.121-5.966H1.075c0,0-0.461,6.196,6.196,9.371C9.344,22.736,9.319,24.451,9.319,24.451"/>
<path class="p3" fill-rule="evenodd" clip-rule="evenodd" d="M24.015,0.024L17.128,0c0,0,0.078,4.966,3.226,6.169
	c5.249,1.971,5.121,5.966,5.121,5.966l6.785-0.026c0,0,0.436-6.17-6.195-9.371C23.99,1.766,24.015,0.024,24.015,0.024"/>
<path class="p4" fill-rule="evenodd" clip-rule="evenodd" d="M24.015,24.451l-6.887,0.025c0,0,0.078-4.967,3.226-6.145
	c5.249-1.998,5.121-5.991,5.121-5.991l6.785,0.025c0,0,0.436,6.196-6.195,9.371C23.99,22.736,24.015,24.451,24.015,24.451"/>
<path class="p5" fill-rule="evenodd" clip-rule="evenodd" d="M24.911,12.237c0,3.33-3.712,6.043-8.244,6.043v0.231
	c4.659,0,8.449-2.816,8.449-6.274c0-3.456-3.79-6.271-8.449-6.271v0.229C21.199,6.195,24.911,8.909,24.911,12.237 M16.667,18.28
	c-4.557,0-8.244-2.713-8.244-6.043c0-3.328,3.687-6.042,8.244-6.042V5.966c-4.685,0-8.474,2.815-8.474,6.271
	c0,3.458,3.789,6.274,8.474,6.274V18.28z"/>
<path class="p6" fill-rule="evenodd" clip-rule="evenodd" d="M21.146,6.964c-0.717,1.483-2.457,2.457-4.402,2.457
	c-1.971,0-3.687-0.974-4.431-2.457L12.11,7.066c0.768,1.562,2.585,2.585,4.634,2.585c2.022,0,3.84-1.023,4.609-2.585L21.146,6.964z"
	/>
<path class="p7" fill-rule="evenodd" clip-rule="evenodd" d="M19.561,6.349c-0.818,0.589-1.818,0.921-2.767,0.921
	c-1.254,0-2.225-0.511-2.814-0.947l-0.129,0.179c0.615,0.462,1.64,0.999,2.943,0.999c1,0,2.025-0.332,2.895-0.947L19.561,6.349z"/>
<path class="p8" fill-rule="evenodd" clip-rule="evenodd" d="M21.303,17.333c-0.819-1.46-2.613-2.407-4.559-2.407
	c-1.945,0-3.763,0.947-4.582,2.432l0.203,0.104c0.793-1.409,2.51-2.305,4.379-2.305c1.87,0,3.585,0.896,4.353,2.305L21.303,17.333z"
	/>
<path class="p9" fill-rule="evenodd" clip-rule="evenodd" d="M19.586,17.923c-0.819-0.54-1.767-0.82-2.792-0.82
	c-1.073,0-2.072,0.308-2.894,0.87l0.13,0.206c0.794-0.564,1.74-0.846,2.764-0.846c0.973,0,1.896,0.282,2.688,0.793L19.586,17.923z"
	/>
<rect class="p10" x="8.295" y="12.135" fill-rule="evenodd" clip-rule="evenodd" width="16.718" height="0.231"/>
<path class="p11" fill-rule="evenodd" clip-rule="evenodd" d="M22.453,12.237c0,3.33-2.585,6.043-5.786,6.043v0.231
	c3.329,0,6.018-2.816,6.018-6.274c0-3.456-2.688-6.271-6.018-6.271v0.229C19.868,6.195,22.453,8.909,22.453,12.237 M16.667,18.28
	L16.667,18.28c-3.2,0-5.785-2.713-5.785-6.043c0-3.328,2.585-6.042,5.785-6.042V5.966c-3.328,0-6.017,2.815-6.017,6.271
	c0,3.458,2.689,6.274,6.017,6.274V18.28z"/>
<path class="p12" fill-rule="evenodd" clip-rule="evenodd" d="M19.662,12.237c0,3.33-1.331,6.043-2.995,6.043v0.231
	c1.768,0,3.226-2.816,3.226-6.274c0-3.456-1.458-6.271-3.226-6.271v0.229C18.331,6.195,19.662,8.909,19.662,12.237 M16.667,18.28
	L16.667,18.28c-1.663,0-3.021-2.713-3.021-6.043c0-3.328,1.358-6.042,3.021-6.042V5.966c-1.792,0-3.226,2.815-3.226,6.271
	c0,3.458,1.434,6.274,3.226,6.274V18.28z"/>
<path class="p13" d="M31.415,31.261v-0.769c0.768-0.103,1.151-0.563,1.151-1.33c0-0.718-0.384-1.152-1.151-1.308v-0.793
	c0.589,0.077,1.075,0.256,1.434,0.513c0.512,0.384,0.768,0.922,0.768,1.588C33.616,30.417,32.873,31.133,31.415,31.261
	 M31.415,27.062v0.793c-0.206-0.051-0.462-0.076-0.717-0.076h-0.437v2.739h0.716c0.153,0,0.31,0,0.438-0.025v0.769
	c-0.206,0.025-0.409,0.052-0.641,0.052h-1.512v-4.302h1.512C31.006,27.011,31.209,27.038,31.415,27.062 M26.474,29.597v-0.769
	c0.23,0,0.435-0.051,0.588-0.128c0.181-0.076,0.281-0.204,0.281-0.384c0-0.358-0.281-0.538-0.845-0.538h-0.024v-0.768h0.076
	c0.563,0,1,0.128,1.306,0.333c0.357,0.23,0.513,0.563,0.513,0.998c0,0.333-0.179,0.614-0.539,0.846
	c0.232,0.153,0.384,0.383,0.411,0.716c0.025,0.154,0.052,0.41,0.128,0.77c0.024,0.151,0.204,0.383,0.537,0.64H27.55
	c-0.104-0.154-0.207-0.385-0.257-0.743c-0.077-0.461-0.129-0.742-0.153-0.819c-0.026-0.076-0.103-0.128-0.206-0.128
	c-0.025-0.025-0.152-0.025-0.358-0.025H26.474z M26.474,27.011v0.768h-0.846v1.05h0.742h0.104v0.769h-0.846v1.716h-1.025v-4.302
	H26.474z M21.686,31.389v-0.768c0.463,0,0.793-0.154,1.049-0.46c0.231-0.258,0.333-0.591,0.333-0.999
	c0-0.41-0.102-0.743-0.333-0.999c-0.256-0.309-0.586-0.46-1.049-0.46v-0.77c0.793,0,1.435,0.23,1.868,0.691
	c0.386,0.408,0.564,0.922,0.564,1.537c0,0.639-0.179,1.151-0.564,1.534C23.094,31.159,22.479,31.389,21.686,31.389 M21.686,26.934
	v0.77H21.66c-0.461,0-0.794,0.151-1.051,0.46c-0.23,0.256-0.332,0.589-0.332,0.999c0,0.408,0.127,0.741,0.332,0.999
	c0.257,0.306,0.616,0.46,1.051,0.46h0.025v0.768H21.66c-0.794,0-1.434-0.23-1.869-0.692c-0.385-0.383-0.563-0.896-0.563-1.534
	c0-0.615,0.178-1.129,0.563-1.537c0.436-0.461,1.075-0.691,1.869-0.691H21.686z M7.041,31.389v-0.768
	c0.461,0,0.818-0.154,1.074-0.46c0.205-0.258,0.332-0.591,0.332-0.999c0-0.41-0.127-0.743-0.332-0.999
	c-0.256-0.309-0.613-0.46-1.074-0.46v-0.77c0.818,0,1.459,0.23,1.895,0.691c0.383,0.408,0.562,0.922,0.562,1.537
	c0,0.639-0.179,1.151-0.589,1.534C8.476,31.159,7.859,31.389,7.041,31.389 M14.133,31.313h-0.975l-2.149-2.816v2.816H9.984v-4.302
	h0.998l2.126,2.79v-2.79h1.025V31.313z M18.946,29.878c-0.076,0.487-0.306,0.846-0.666,1.127c-0.333,0.256-0.768,0.384-1.304,0.384
	c-0.821,0-1.436-0.23-1.844-0.692c-0.333-0.408-0.513-0.896-0.513-1.534c0-0.615,0.18-1.103,0.537-1.512
	c0.41-0.486,1.025-0.717,1.82-0.717c0.537,0,0.971,0.128,1.304,0.358c0.36,0.256,0.563,0.641,0.563,1.127h-0.998
	c-0.051-0.256-0.127-0.436-0.28-0.538c-0.128-0.127-0.334-0.178-0.588-0.178c-0.463,0-0.795,0.151-1.025,0.46
	c-0.181,0.256-0.282,0.589-0.282,0.999c0,0.408,0.101,0.741,0.282,0.999c0.23,0.306,0.562,0.46,1.025,0.46
	c0.509,0,0.818-0.256,0.946-0.743H18.946z M4.326,29.878c-0.101,0.487-0.307,0.846-0.665,1.127
	c-0.333,0.256-0.768,0.384-1.331,0.384c-0.794,0-1.407-0.23-1.818-0.692C0.154,30.289,0,29.801,0,29.163
	c0-0.615,0.18-1.103,0.537-1.512c0.411-0.486,1.025-0.717,1.793-0.717c0.563,0,0.998,0.128,1.331,0.358
	c0.358,0.256,0.538,0.641,0.564,1.127h-1c-0.051-0.256-0.152-0.436-0.282-0.538c-0.152-0.127-0.332-0.178-0.613-0.178
	c-0.435,0-0.768,0.151-0.999,0.46c-0.179,0.256-0.281,0.589-0.281,0.999c0,0.408,0.102,0.741,0.281,0.999
	c0.231,0.306,0.564,0.46,0.999,0.46c0.512,0,0.844-0.256,0.947-0.743H4.326z M7.041,26.934v0.77c-0.461,0-0.82,0.151-1.051,0.46
	c-0.231,0.256-0.331,0.589-0.331,0.999c0,0.408,0.1,0.741,0.331,0.999c0.256,0.306,0.59,0.46,1.051,0.46v0.768
	c-0.82,0-1.434-0.23-1.869-0.692c-0.383-0.383-0.59-0.896-0.59-1.534c0-0.615,0.207-1.129,0.59-1.537
	C5.607,27.165,6.246,26.934,7.041,26.934"/>
</svg>
